# xmcd
#
# Track frame offsets: 
#        150
#        20114
#        37664
#        54806
#        73369
#        91549
#        108824
#        132085
#        149204
#        169139
#        184797
#        202797
#
# Disc length: 2977 seconds
#
# Revision: 1
# Processed by: cddbd v1.5.2PL0 Copyright (c) Steve Scherf et al.
# Submitted via: ExactAudioCopy v0.99pb4
#
DISCID=9d0b9f0c
DTITLE=Sleepthief - Labyrinthine Heart
DYEAR=2009
DGENRE=New Age
TTITLE0=Here I Confess (w. Joanna Stevens)
TTITLE1=World Gone Crazy (w. Coury Palermo)
TTITLE2=Skimming Stones (Reprise) [w. Kirsty Hawkshaw] 
TTITLE3=Labyrinthine Heart (w. Jody Quine)
TTITLE4=A Kind Of Magic (w. Zoe Johnston)
TTITLE5=A Cut From The Fight (w. Kristy Thirsk)
TTITLE6=Rainy World (w. Caroline Lavelle)
TTITLE7=Ariadne The Dividing Sea (w. Joanna Stevens)
TTITLE8=Reason Why (w. Zoe Johnston and Coury Palermo)
TTITLE9=Fire King (w. Jody Quine)
TTITLE10=Reversals (w. Kristy Thirsk)
TTITLE11=I Know There's Something Going On (w. Roberta Carter-Harrison
TTITLE11=)
EXTD=YEAR: 2009
EXTT0=
EXTT1=
EXTT2=
EXTT3=
EXTT4=
EXTT5=
EXTT6=
EXTT7=
EXTT8=
EXTT9=
EXTT10=
EXTT11=
PLAYORDER=
